<svg id="Layer_1" data-name="Layer 1" xmlns="http://www.w3.org/2000/svg" viewBox="0 0 1000 1000"><defs><style>.cls-1{fill:#b0ce57;}.cls-2{fill:#231f20;}.cls-3{fill:#cf85aa;}.cls-4{fill:#eac3d2;}.cls-5{fill:#d1c6cd;}.cls-6{fill:#e0e8ca;}.cls-7{fill:#c0c4c9;}</style></defs><title>Artboard 1</title><path class="cls-1" d="M801.09,286.14c12.91,32.88,5.49,76.47-9,103.24a449.91,449.91,0,0,1-27.87,44.35c-3.19,4.56-6.5,8.72-9.68,13l-11.63-4.49c8.15-9.47,12.85-22.44,13.45-39.5l-.38-3.92a39.26,39.26,0,0,0-1.58-10.21,214.26,214.26,0,0,0,13.36-20c4.81-8.33,11-17.64,11.37-29.83.47-14.1-4.75-25.34-6-39.27a63.78,63.78,0,0,1,.53-15.69,53.38,53.38,0,0,0,.39-8.63c-.55-7.87.57-15.64.39-22.77-.06-2.42-1.22-4.86-1.17-7.06.11-5.81,1.94-11.21,2-16.88.11-18.56-4.14-32-11.78-44C754,169.58,743.35,156,728.48,145.22,725.86,135,718.57,128,712,120.88c-15.16-16.3-35-29.5-65.16-31-3.53-.17-3.67-1.18-7.35-1.87a66.25,66.25,0,0,0-11.89-.87h-7.84c-9.42,1-18.25,2.68-25.52,5.88-16.4-17.2-45.29-29.74-76.93-34.93-27.7-4.56-61.59-.66-80.87,9.42,22.34-26.74,52.39-45.75,101.27-45.93,18.46,5.21,30.71,11.41,44,21.2,3.6,2.66,8.46,8.13,12.17,9,3.49.85,7.57.06,10.6.39,15.63,1.72,30.92,5.76,42.78,12.17,4.33,2.33,7.64,6.24,12.57,9,4.4,2.48,12.73,3.44,17.66,5.1,37.24,12.5,64.78,34.59,88.32,62,13,15.12,25.67,31.72,31.4,54.57,5.67,22.62.79,45.12-1.18,68.69-.26,3.19-1.18,6.92-.79,9.82C795.8,277.79,799.61,282.37,801.09,286.14Z"/><path class="cls-2" d="M773.09,299.47c1.27,13.93,6.49,25.17,6,39.27-.39,12.19-6.56,21.5-11.37,29.83a214.26,214.26,0,0,1-13.36,20A39.26,39.26,0,0,1,756,398.79l.38,3.92c-.6,17.06-5.3,30-13.45,39.5-7.22,8.37-17.12,14-29.33,17.43-7,29.53-23.62,55.48-51.42,69.09-30.84,15.08-89.36,22.59-100.48-14.93a18,18,0,0,1-6.29.81L556,502c2,.74,4,1.42,6.08,2,3.28-12.83,5.69-24.21,16.1-28.65,8.53-3.65,20.82-2.1,32.19-1.19,7.08.57,17,2.76,22.76,1.19,3.47-1,4.73-6,7.06-7.48.31,5.75,1,10.19-1.16,13.75-3.44,5.55-19.11,3.92-30.23,3.92-9.76,0-20.63-.35-25.13,2.75-3.86,2.66-9.71,15.3-8.24,22.77,1,5.15,9.23,10.6,14.14,12.56,17.93,7.16,40.31.74,54.55-5.49,22.84-10,38.32-27.06,46.33-50.64,1.49-4.43,2.19-10.66,4.7-14.93A16.12,16.12,0,0,1,702,446.5c4.64-2.37,10.31-3.61,15.14-6.09,13.23-6.87,23.22-19.88,21.58-41.23a33.31,33.31,0,0,0-20.41-28.26c-17.29-7.09-38.95.64-46.71,11.39-5.67,7.84-11.06,26.07-10.6,37.68.54,13.72,21,22.44,32.18,14.13,4-3,5.44-9.14,5.9-15.7-4.08-5.48-13.55-1-19.23,0a19,19,0,0,1,0-2.37V416c.12-1.05.23-2,.41-3.07,3.57-15.72,29.29-9.92,31.42,3.57,1.32,8.41-3.51,19.71-7.45,24.35a22.43,22.43,0,0,1-6.78,5.28c-5.55,2.91-12.77,4.15-20.71,3.35C664,448.11,654.21,439.38,650,429.81c-7.59-17.24,2.94-48,10.6-58.1,16.66-22,56.68-26.39,77.72-8.63,3.55,3,5.79,7.24,9.81,9.8,5.28-11.9,12.77-24.09,15.31-40,1.71-10.62,1.29-21.7.42-32.61Z"/><path class="cls-2" d="M763.41,184.47c7.64,12,11.89,25.41,11.78,44,0,5.67-1.85,11.07-2,16.88-.05,2.2,1.11,4.64,1.17,7.06.18,7.13-.94,14.9-.39,22.77a53.38,53.38,0,0,1-.39,8.63,63.78,63.78,0,0,0-.53,15.69l-9.26.77c-.91-10.83-2.23-21.47-2.38-31.37-13.74,9.53-1.79,37.53-9.81,53.77-3.66,7.44-14.78,14.46-25.13,13.75-6.08-.43-13.84-8.12-13-14.93.33-2.44,3.19-6.25,7.07-4.7,3.49,1.39,1.35,7.83,5.88,9.8,13.92-.56,17.68-8.55,17.28-22.76-.27-8.72-4.12-17.94-3.14-27.47,1.33-12.84,9.48-15.46,14.52-24.73,3.85-7.09,5.15-18.49,5.1-26.7-.13-22.46-13.17-39.86-23.94-52.6-1.59-1.87-3.69-4.6-5.1-4.31,6.95,19.71,2.13,44-4.32,59.66-3.19,7.68-9.6,17-17.27,21.2-17.12,9.36-40.9-1.57-60.06-1.57-9.14,0-19.1,1.87-26.69,5.5-12.37,5.88-25.08,20.43-23.95,39.25.22,3.53,2.27,7.34,0,9.81-3.72-1.22-4.27-4.76-5.49-7.46a41.11,41.11,0,0,1-3.53-9.81c-2.54-14.2,7.66-26.08,14.13-33,12.84-13.7,35.21-20.83,60.83-16.88,10.58,1.63,25.58,6,35.73,2.35,8.74-3.16,12.88-15.06,15.3-24.73,3.46-13.82,3.88-25.8.8-39.25-1.47-6.3-1.89-12.67-3.15-18.45-2.27-10.4-8.31-15.92-15.31-23.55a85.51,85.51,0,0,0-14.91-13.35c-13-8.7-45.32-18-58.48-6.67-10.46,9-21.45,36.59-18.85,55,.89,6.34,6.37,13.38,10.6,17.66,3.53,3.57,9.22,8.85,14.52,9.81,5.76,1.05,15.59-.89,19.23-2.35,5.34-2.14,14.29-9,15.32-14.92,1.49-8.57-4.68-17.8-9.83-19.63-9.76-3.46-14.3,5.94-19.23,10.6,1.75-12.58,10.52-26,25.91-20,12.23,4.73,21.08,25.76,13.35,39.65-7.66,13.74-33.83,30.55-55.35,20-13.59-6.65-29.7-23.4-31-41.61-1.57-21.85,7.58-41.48,17.27-58.1-22,6.39-32,29.36-52,38.74a52.62,52.62,0,0,1-9.78,2.68c-6.48.89-13.61.74-20.3,1.76A47.18,47.18,0,0,0,503.23,159l-7.13-6.72a28.33,28.33,0,0,1,2-4.86s0,0,0,0a26.58,26.58,0,0,0,1.9-3.08.07.07,0,0,0,.05-.06c5.19-7,13.58-9.93,24.3-11.58,6.51-1,14.3-.59,20.8-2.75s12.93-9.2,18.06-13.74c6-5.36,11.18-10.08,16.87-15.3C556.29,84.72,521,69.36,479.22,73.39c-14.11,1.35-26,4.47-35.65,9.94a54,54,0,0,0-18.13,16.36,35.39,35.39,0,0,1,17.67,22.37c2,6.95,3.49,16.4,1.17,23.16-1.63,4.8-6.95,7.06-11.38,9.81,7.52-26.71-3.58-47.95-31-44.74-16.14,1.87-21.79,16.2-27.09,29.83,19.57,9,35.81,24,36.9,49.45.66,15-6.6,31.65-13.34,42.79-7.81,12.89-19.21,20.11-35.33,21.2a59,59,0,0,1-11.23-.11,25.27,25.27,0,0,1-4.86-1.07c-15.58-5.3-22.42-29.66-13-47.1,2.95-5.43,10.21-13.3,18.85-12.17,6.19.8,10.48,7.24,13.73,10.6-4.18-2.36-9.07-6.55-14.52-5.5-8.18,1.59-12.32,14.31-10.88,24.62,0,.09,0,.15,0,.22a19.61,19.61,0,0,0,1,4.6,7.94,7.94,0,0,0,.55,1.18s0,.07.05.09a12.37,12.37,0,0,0,6.08,6.58c7.72,3.43,22.24.16,27.08-3.14a22.43,22.43,0,0,0,5.48-6.15,1.21,1.21,0,0,0,.15-.22c.26-.37.52-.76.76-1.15.57-.86,1.1-1.75,1.62-2.67a4.85,4.85,0,0,0,.3-.54c4.8-8.26,10.06-20.23,9.75-30.88-.37-13.15-8.29-23-17.66-29.44-9.8-6.71-25.39-8-40-6.28-4.5.53-9,4.06-13.35,5.89S314.18,164,310.83,166c-8.14,4.79-15.86,12.57-22.38,20a70.49,70.49,0,0,0-15.31,27.47c-6.61,22.14-10.73,48.56-6.28,75.37a108.16,108.16,0,0,0,28.26,57.3c16.05,17.12,39.86,31,72.62,28.65-.15-.23-.31-.47-.5-.72a.62.62,0,0,0-.11-.17c-1.87-2.64-4.4-4.74-6.46-7.34-7.15-8.95-12.29-21.16-12.95-36.51-.48-11.49,3.25-23.35,2-34.93-.51-4.48-2.86-11.7-6.29-13.35-6.34-3.05-22.55-.74-27.86,2.75-4.52,2.94-5.74,8.26-8.64,12.16,1.46-5,2.11-9.9,4.1-13.61h0a21.75,21.75,0,0,1,7.29-6.06l.13-.07c7.32-3.29,19.08-5.69,26.49-4.58H345a23.19,23.19,0,0,1,3.64,1.22c.15.07.33.15.48.24,5.47,3,10.09,10,12.27,17a4.88,4.88,0,0,1,.2.65c.17.65.35,1.33.5,2a13,13,0,0,1,.31,1.42c.1.61.19,1.22.26,1.82a74.8,74.8,0,0,1,.28,9.53c0,1-.07,2-.13,3-.37,7.15-1.18,14.05-.54,20.85a52.55,52.55,0,0,0,7.06,22.15,13.17,13.17,0,0,0,1,1.57c.18.33.4.64.61,1s.61.91,1,1.36c.07.09.15.23.24.35,11.14,15.16,30.6,23.5,53.36,19.91-2.22-9.37-5.65-23.23-1.57-33a16.08,16.08,0,0,1,3.84-5.37l12.54,2.07c-3.86,15.51-1,35,10.71,40.59,5-14.69,15.26-25.39,31.79-25.53,9.64-.07,19.19,3.67,27.87,7.87,14,6.77,25.78,12,28.65,27.46-3.2-3.3-5.66-7.61-9.41-10.19-7.14-5-27.85-12.17-38.08-13-14.11-1.08-25.12,7-25.51,18.46-.26,7.75,3.84,15.05,9.42,18.06,10,5.39,26.45,5,40.82,5.1,15,.16,29.85-3.07,43.18-.39,24.36,4.91,38,24.91,51.81,39.25-13.55-10.56-29.24-29.93-51.42-31.41-13.55-.91-24.82,3.69-36.9,6.29,2.88,6.6,8.22,9.22,10.6,17.67,3.67,13-3.06,33.81,2,46.31,1.68,4.19,7.61,8.35,11,10.6A48.13,48.13,0,0,0,556,502l-.59,12.63c-7.24-.31-13.34-4.93-18.44-8.65-4.74-3.46-9.84-7.9-12.56-13.36-4.74-9.43-3.93-21.17-5.11-33.36a71.57,71.57,0,0,0-4.32-23.94,42.94,42.94,0,0,0-4.71-11h-.39c-4.06-.92-9.82-.12-14.52-.39-5.11,0-9.56-.66-14.53-.78-1-.62-2.55-.6-3.92-.77a21.52,21.52,0,0,0-5.11-1.58c-1.76-1-3.71-1.8-5.49-2.75-.79,0-.51-1.07-1.58-.78-2.74-2.5-5.36-5.1-7.84-7.86-.7-1.92-2.08-3.16-2.75-5.11-1.05-3.14-2.36-6-2.75-9.8-1.46-1-3.71-1.26-5.89-1.57a65.87,65.87,0,0,1-11.38-4.72c-1.44-1.18-3.49-3.82-4.71-3.92-1.77,3.34-4.12,6.08-7.85,7.46-2.11,0-3.58.62-5.5.77h-7.85c-5.78.59-10.55-3.1-16.09-3.53-7.48-.58-15.31,2.76-23.62,2.76h-.33c-5.84,0-11.11.66-17.27.38-8-1.06-15.57-2.48-22-5.1a59.07,59.07,0,0,0-6.28-2.35,47.09,47.09,0,0,0-6.28-2.76c-2.22-1.55-5-2.56-7.46-3.92-2.18-.81-3.55-2.46-5.88-3.14-1.51-1.63-3.74-2.54-5.5-3.92-1.09-.74-2.05-1.61-3.14-2.35-2.22-1.3-3.49-3.57-5.89-4.72A77.15,77.15,0,0,0,281,356.4V356c-2.2-2.25-3.92-5-6.28-7.06-5.12-7.44-10.16-15-14.13-23.55a138.54,138.54,0,0,1-12.95-47.51v-2.74c-.26-2,.52-5-.4-6.28v-4.72c.9-.93.14-3.53.4-5.1v-3.14c2.72-24.62,6.84-47.85,16.09-65.94,2.25-4.69,5.61-8.27,8.24-12.56,2.23-1.84,3.89-4.23,5.89-6.28v-.4a25.91,25.91,0,0,0,4.32-4.31h.39a26,26,0,0,0,4.32-4.32c3.31-2,5.8-4.93,9-7.07a64.36,64.36,0,0,1,7.45-5.1c1.66-1,3.67-1.57,5.11-2.75a17.09,17.09,0,0,0,4.71-2,19.21,19.21,0,0,0,6.28-2.74,73.2,73.2,0,0,0,7.46-3.54,22.24,22.24,0,0,0,5.1-1.57c2-.19,4.27-.17,5.89-.79h18.84a11.85,11.85,0,0,0,1.18-4.7,23.85,23.85,0,0,0,2-4.72c1.05-1.18,1.53-2.92,2.36-4.32,1.74-3.61,4.05-6.67,5.88-10.2,1.64-1.25,2.51-3.25,3.93-4.71v-.39a36.76,36.76,0,0,0,5.1-5.11c1.75-.61,2.75-2,4.32-2.74,1.79-1,3.73-1.77,5.5-2.75a21.76,21.76,0,0,0,5.1-1.57c2.79-.35,5.34-.94,8.25-1.18a10.45,10.45,0,0,0,5.25-.37.63.63,0,0,0,.24,0,1.25,1.25,0,0,0,.19-.15c3.21-1.39,4.63-4.55,7-6.76q.33-.28.66-.54a30,30,0,0,1,4.71-4.71,26,26,0,0,0,4.32-4.32c2.48-1.44,4.36-3.49,6.67-5.1,1.37-1.12,3.21-1.77,4.32-3.14a5.05,5.05,0,0,0,2.74-1.57c19.28-10.08,53.17-14,80.87-9.42,31.64,5.19,60.53,17.73,76.93,34.93,7.27-3.2,16.1-4.84,25.52-5.88h7.84a66.25,66.25,0,0,1,11.89.87c3.68.69,3.82,1.7,7.35,1.87,30.2,1.51,50,14.71,65.16,31,6.58,7.09,13.87,14.14,16.49,24.34C743.35,156,754,169.58,763.41,184.47Z"/><path class="cls-3" d="M763.83,300.24c.87,10.91,1.29,22-.42,32.61-2.54,15.94-10,28.13-15.31,40-4-2.56-6.26-6.81-9.81-9.8-21-17.76-61.06-13.42-77.72,8.63-7.66,10.14-18.19,40.86-10.6,58.1,4.24,9.57,14.07,18.3,26.69,19.62,7.94.8,15.16-.44,20.71-3.35l4.59.42a16.12,16.12,0,0,0-6.85,6.06c-2.51,4.27-3.21,10.5-4.7,14.93-8,23.58-23.49,40.64-46.33,50.64-14.24,6.23-36.62,12.65-54.55,5.49-4.91-2-13.14-7.41-14.14-12.56-1.47-7.47,4.38-20.11,8.24-22.77,4.5-3.1,15.37-2.75,25.13-2.75,11.12,0,26.79,1.63,30.23-3.92,2.17-3.56,1.47-8,1.16-13.75-2.33,1.52-3.59,6.51-7.06,7.48-5.75,1.57-15.68-.62-22.76-1.19-11.37-.91-23.66-2.46-32.19,1.19-10.41,4.44-12.82,15.82-16.1,28.65-2.09-.6-4.11-1.28-6.08-2a48.13,48.13,0,0,1-9.23-4.66c-3.38-2.25-9.31-6.41-11-10.6-5-12.5,1.71-33.31-2-46.31-2.38-8.45-7.72-11.07-10.6-17.67,12.08-2.6,23.35-7.2,36.9-6.29,22.18,1.48,37.87,20.85,51.42,31.41-13.85-14.34-27.45-34.34-51.81-39.25-13.33-2.68-28.16.55-43.18.39-14.37-.15-30.79.29-40.82-5.1-5.58-3-9.68-10.31-9.42-18.06.39-11.47,11.4-19.54,25.51-18.46,10.23.8,30.94,8,38.08,13,3.75,2.58,6.21,6.89,9.41,10.19-2.87-15.43-14.6-20.69-28.65-27.46-8.68-4.2-18.23-7.94-27.87-7.87-16.53.14-26.84,10.84-31.79,25.53-11.69-5.63-14.57-25.08-10.71-40.59.15-.62.33-1.22.5-1.8,13.11,4.81,25.82,9.2,41.61,8.23,8.46-.53,16.7-3.46,25.13-5.11,23.63-4.62,49-4.07,61.62,11.4,6.4,7.86,9.34,17.78,13.74,28.26-1.88-12.95-2.66-22.6-7.06-31.8-9.55-19.85-30.23-25.68-54.65-26.25a10.18,10.18,0,0,1,2-.05c.27.1,1.38-.13,1.19-.39-.88-1.15-7.2-3.57-9.82-4.31-3.51-1-7.37-.53-11-1.18a98,98,0,0,1-25.52-9c-5.06-2.85-11-10.3-13.74-17.66-3-8.11-3-22.64-2-33.76,1.49-16.07,4-33.67,10.6-43.18,3.81-5.54,12.6-13.24,18.84-17.27,5.26-3.38,11.08-6,18.06-5.1,9.68,1.3,19.43,7.28,26.29,11.38,6.08,3.6,11.82,6.26,18.46,9.42-9.49-17.29-29.15-30.31-52.6-33.37-.94-.65-4.56-.65-5.5,0-13.48,1.08-26,7.88-34.15,14.92-9.46,8.18-15.18,20-21.59,33.76-7,15-12.51,30.13-12.56,48.28a10.36,10.36,0,0,0,0,6.28c.11,9.64,1.6,18.32,5.5,24.73,8.5,14,27.12,23.8,49.45,22,11.56-.94,23.95-6.84,36.12-5.89a.94.94,0,0,0,.74.41c-.76,0-1.55,0-2.31,0-12,0-23.07,5-34.55,5.88-22.71,1.75-40.84-8.07-49.45-21.58-11.06-17.31-5.7-49.61.78-67.12,7.09-19.14,16.07-38.31,31-49.46,8.44-6.3,17.34-11.07,27.87-12.56,11.3-1.59,22.42,2.12,32.18,7.07,16.07,8.13,34,20.19,34.16,45.92.06,12.81-3.47,24.73-9.82,33.37-5.8,7.87-13.43,15.46-23.7,18.23,11.63-3.46,21.35-14.77,25.28-22.55-8.16,5.76-22,9.29-30.61,1.57-.61.59-.12,2.24-1.58,2-2.34-6.52-6.78-12.58-13.74-12.95-11.93-.63-15.29,20.17-7.48,27.46-3.47-2.77-5.56-7.14-4.69-14.51.61-5.08,4.26-12.47,9.82-13.34,9.17-1.44,13.71,6.76,16.48,13,6-11.88-5.95-21.7-15.7-23.16a22.68,22.68,0,0,0-5.1,0c-19.3,2.55-23.71,38.1-8.25,49.07,1.25.87,2.84,2,3.54,2.35,20.65,10.54,42.37,4.28,56.12-8.23,15.61-14.18,26.2-33.66,24.74-60.07-1.15-21-12.9-34.17-25.13-43.18-13.39-9.88-26.82-17.26-49.06-19.23.78-.66,1.59-1.29,2.42-1.92a47.18,47.18,0,0,1,21.53-8.68c6.69-1,13.82-.87,20.3-1.76-4.39.8-9.06,1.29-14,1.76-11.45,1.09-22,3.71-29,10.21,14.48.3,25,6.65,34.94,10.2,0-1.91-.23-4.14.39-5.49,9.31-9.53,23.42-12.76,33.36-21.6,7.07-6.29,13.63-14.47,21.2-20,2.7-2,6.28-3.36,8.24-5.5,2.59-2.81,3.31-7.37,5.89-10.2-18.56,6.15-28.63,23.44-44,34.15a35.18,35.18,0,0,1-7.2,3.8c20-9.38,29.93-32.35,52-38.74-9.69,16.62-18.84,36.25-17.27,58.1,1.3,18.21,17.41,35,31,41.61,21.52,10.53,47.69-6.28,55.35-20,7.73-13.89-1.12-34.92-13.35-39.65-15.39-6-24.16,7.44-25.91,20,4.93-4.66,9.47-14.06,19.23-10.6,5.15,1.83,11.32,11.06,9.83,19.63-1,5.93-10,12.78-15.32,14.92-3.64,1.46-13.47,3.4-19.23,2.35-5.3-1-11-6.24-14.52-9.81-4.23-4.28-9.71-11.32-10.6-17.66-2.6-18.37,8.39-45.95,18.85-55,13.16-11.36,45.47-2,58.48,6.67a85.51,85.51,0,0,1,14.91,13.35c7,7.63,13,13.15,15.31,23.55,1.26,5.78,1.68,12.15,3.15,18.45,3.08,13.45,2.66,25.43-.8,39.25-2.42,9.67-6.56,21.57-15.3,24.73-10.15,3.67-25.15-.72-35.73-2.35-25.62-3.95-48,3.18-60.83,16.88-6.47,6.89-16.67,18.77-14.13,33a41.11,41.11,0,0,0,3.53,9.81c1.22,2.7,1.77,6.24,5.49,7.46,2.27-2.47.22-6.28,0-9.81-1.13-18.82,11.58-33.37,23.95-39.25,7.59-3.63,17.55-5.5,26.69-5.5,19.16,0,42.94,10.93,60.06,1.57,7.67-4.19,14.08-13.52,17.27-21.2,6.45-15.62,11.27-40,4.32-59.66,1.41-.29,3.51,2.44,5.1,4.31,10.77,12.74,23.81,30.14,23.94,52.6.05,8.21-1.25,19.61-5.1,26.7-5,9.27-13.19,11.89-14.52,24.73-1,9.53,2.87,18.75,3.14,27.47.4,14.21-3.36,22.2-17.28,22.76-4.53-2-2.39-8.41-5.88-9.8-3.88-1.55-6.74,2.26-7.07,4.7-.89,6.81,6.87,14.5,13,14.93,10.35.71,21.47-6.31,25.13-13.75,8-16.24-3.93-44.24,9.81-53.77C761.6,278.77,762.92,289.41,763.83,300.24Zm-54.59-10.18c3-6.84,5.43-29-3.93-30.22-3.94-.52-6.42,1.83-8.24,4.31,2.82.72,4.81.58,5.51,2.76,2,6.23-8.8,19.95-11.4,22.76-11.68,12.65-28.45,17.51-44.35,24.34-7.92,3.4-16.77,6.28-23.94,10.59-9.64,5.79-20.52,17-20.41,32.19.08,10.09,5.9,18.2,9.41,25.11,5.45,10.76,15.86,26.81,7.07,40.46,5.52-3.54,8.88-5.36,11.39-9.83,7.52-13.37-.84-26.88-5.49-36.9-2.47-5.29-7.45-13.16-6.68-19.23.56-4.45,4.51-9.36,7.45-11.78,5.91-4.82,14.46-8.25,22.38-12.17,7.67-3.79,15.71-7.69,23.16-11.38,7.61-3.74,15.72-7.36,22-12.56S706.13,297.1,709.24,290.06Zm-23.55,24.73c-.08-.3-.33-.45-.78-.4s-.46.33-.79.4c-8.66,4.86-19.43,10.11-30.61,15.31-10.35,4.79-22.68,9.72-29.45,16.48-2.66,2.68-5.23,7.35-5.49,10.6-.53,6.4,4.09,13.06,6.67,18.45,2.64,5.56,5,10.95,7.46,15.71,2.42-8.87-1.35-18.4.39-25.53,2.66-10.81,11.2-20.9,18.84-26.3,5.42-3.78,11.79-7.84,17.67-11.37S684.25,322.8,685.69,314.79ZM666.07,116.17c4.61.17,9,3.41,14.51,1.18-9.57-6.52-22.51-9.66-37.67-10.6H637.8A18.33,18.33,0,0,0,626,110.68c-9.68,7.63-18.44,28.41-19.62,45.92a50.86,50.86,0,0,0,0,8.64c1.34,10.73,16,25.32,23.55,27.47,14.16,4,32.74-7,34.93-16.09,2.27-9.4-4.79-20.31-12.56-20.41-8.69-.13-10.9,8.53-16.09,11.38,1.11-3.72,1.79-7.89,3.53-11C633.92,137.1,646.83,115.41,666.07,116.17Zm-33.37,139c3.74-2,8.17-2.46,10.6-6.66-12.14.93-21.76,4.4-28.65,10.59a25.59,25.59,0,0,0-4.32,4.32c-5.91,7.44-11.7,15-11,29.05,2.71.84,2,5.05,3.92,6.68.31-5.18,4.76-7.92,2.76-14.13C613.42,273.55,620.6,261.7,632.7,255.12Zm-71,247.69c.54-2.52-1.89-4.54-3.15-6.29-4.56-6.23-10.4-10.67-14.13-17.66-5-9.41-6.08-20.92-9-33.37V462a18.94,18.94,0,0,1-.39,4.31c-3.29,21.8,7.27,28.92,19.63,34.55C556.8,501.88,559.42,503.69,561.66,502.81Zm-95-116.58c-.26,16.93,15.52,22.29,33.36,21.2-1.74-1.05-3.92-1.81-5.49-3.15-4.84-4.11-7.85-12.22-6.28-20.8,1.33-7.17,10.14-8.91,14.13-13.34-5.37-1.28-14.48-4.37-19.24-.39A4.45,4.45,0,0,0,480,369C473.4,372.37,466.79,377.46,466.66,386.23Zm0-27.87c-1.05-3.53-.67-8.48-1.57-12.17-8.33-2.14-16.9-4-23.94-7.45-4.24,15.1-2.08,36.21,9.81,41.2C453.2,369.77,460.25,364.38,466.66,358.36Z"/><path class="cls-1" d="M742.89,442.21l11.63,4.49c-1.94,2.56-3.82,5.12-5.63,7.84-4.76,7.1-7.17,15.92-11,25.12-7.3,17.58-15.35,33.28-26.3,45.92a215,215,0,0,1-38.08,34.14,139.87,139.87,0,0,1-49.46,22.77c-7.61,1.92-19.1,4.62-29,7.07s-21.16,5.3-24.34,11.78c-2.29,4.64-1.43,12.77-5.1,16.48-23.3-4.68-21.88-44.2-40.82-54.16-12.7-6.67-28,2.72-32.2,13.34-3.88,9.8-2.87,23.16-5.49,35.72-3.53,9.06-10.6,16.11-11.78,27.48-1.26,12.25.29,27.14.79,41.21.48,13.76-.61,27.81.39,40.82.55,7.22,2.88,15.63,4.71,23.95,1.73,7.86,3.45,177.3,5.89,183.94,4.32,11.76,13,34.28,3.93,45.54-9.47-3.46-21.36-6.31-24.73-14.93-3.08-7.88-1.58-26.86-1.58-39.25,0-13.61-1.43-187.92-2-200-1.15-26.14-2.48-52.66-3.53-77.33-1.13-26.71.55-52.47-3.14-77.72-1.7-11.66-3.79-23.29-5.1-35.33-.09-.77-.18-1.57-.24-2.34-1.07-11.84-.64-23.8-1.34-36.52-.34-6.19-1.69-13.6-1.17-20.42,1.66-21.58,17.78-40.29,32.58-48.66,5,.12,9.42.78,14.53.78,4.05.93,9.81.13,14.52.39h.39A44.39,44.39,0,0,1,515.91,438a113.44,113.44,0,0,1,3.35,21.2c1.18,12.19.37,23.93,5.11,33.36,2.72,5.46,7.82,9.9,12.56,13.36,5.1,3.72,11.2,8.34,18.44,8.65a18,18,0,0,0,6.29-.81c11.12,37.52,69.64,30,100.48,14.93,27.8-13.61,44.44-39.56,51.42-69.09C725.77,456.25,735.67,450.58,742.89,442.21Z"/><path class="cls-3" d="M738.68,399.18c1.64,21.35-8.35,34.36-21.58,41.23-4.83,2.48-10.5,3.72-15.14,6.09l-4.59-.42a22.43,22.43,0,0,0,6.78-5.28c3.94-4.64,8.77-15.94,7.45-24.35-2.13-13.49-27.85-19.29-31.42-3.57a14.69,14.69,0,0,1,1.2-3.88c.93-2,3.51-3.34,3.92-5.1.35-1.56-.52-3.65-.39-5.11.82-9.74,7.19-14.65,12.56-21.19a151.52,151.52,0,0,1,22.77-5.11c-16.71-6.81-36.53-3.22-46.33,7.45-6.68,7.32-11.31,22.19-12.16,34.94a34.37,34.37,0,0,0,0,7.86c1.33,6.87,10.16,14.15,19.63,14.13,11,0,17.74-7.68,17.27-18.45-4.6-5.36-13.74.5-19.24,0,.17-.84.26-1.62.36-2.37a19,19,0,0,0,0,2.37c5.68-1,15.15-5.48,19.23,0-.46,6.56-1.9,12.73-5.9,15.7-11.2,8.31-31.64-.41-32.18-14.13-.46-11.61,4.93-29.84,10.6-37.68,7.76-10.75,29.42-18.48,46.71-11.39A33.31,33.31,0,0,1,738.68,399.18Z"/><path class="cls-2" d="M705.31,259.84c9.36,1.24,7,23.38,3.93,30.22-3.11,7-9.83,13.26-16.1,18.45s-14.36,8.82-22,12.56c-7.45,3.69-15.49,7.59-23.16,11.38-7.92,3.92-16.47,7.35-22.38,12.17-2.94,2.42-6.89,7.33-7.45,11.78-.77,6.07,4.21,13.94,6.68,19.23,4.65,10,13,23.53,5.49,36.9-2.51,4.47-5.87,6.29-11.39,9.83,8.79-13.65-1.62-29.7-7.07-40.46-3.51-6.91-9.33-15-9.41-25.11-.11-15.22,10.77-26.4,20.41-32.19,7.17-4.31,16-7.19,23.94-10.59,15.9-6.83,32.67-11.69,44.35-24.34,2.6-2.81,13.4-16.53,11.4-22.76-.7-2.18-2.69-2-5.51-2.76C698.89,261.67,701.37,259.32,705.31,259.84Z"/><path class="cls-4" d="M673.91,379.94c9.8-10.67,29.62-14.26,46.33-7.45a151.52,151.52,0,0,0-22.77,5.11c-5.37,6.54-11.74,11.45-12.56,21.19-.13,1.46.74,3.55.39,5.11-.41,1.76-3,3.14-3.92,5.1a14.69,14.69,0,0,0-1.2,3.88,13.89,13.89,0,0,0-.41,3.07v.1c-.1.75-.19,1.53-.36,2.37,5.5.5,14.64-5.36,19.24,0,.47,10.77-6.23,18.42-17.27,18.45-9.47,0-18.3-7.26-19.63-14.13a34.37,34.37,0,0,1,0-7.86C662.6,402.13,667.23,387.26,673.91,379.94Z"/><path class="cls-4" d="M684.91,314.39c.45-.05.7.1.78.4-1.44,8-10.21,9.81-16.09,13.35s-12.25,7.59-17.67,11.37c-7.64,5.4-16.18,15.49-18.84,26.3-1.74,7.13,2,16.66-.39,25.53-2.49-4.76-4.82-10.15-7.46-15.71-2.58-5.39-7.2-12.05-6.67-18.45.26-3.25,2.83-7.92,5.49-10.6,6.77-6.76,19.1-11.69,29.45-16.48,11.18-5.2,22-10.45,30.61-15.31C684.45,314.72,684.51,314.39,684.91,314.39Z"/><path class="cls-3" d="M680.18,412.88c-.18,1-.29,2-.41,3.07A13.89,13.89,0,0,1,680.18,412.88Z"/><path class="cls-4" d="M680.58,117.35c-5.47,2.23-9.9-1-14.51-1.18-19.24-.76-32.15,20.93-26.31,40.43-1.74,3.1-2.42,7.27-3.53,11,5.19-2.85,7.4-11.51,16.09-11.38,7.77.1,14.83,11,12.56,20.41-2.19,9.14-20.77,20.11-34.93,16.09-7.59-2.15-22.21-16.74-23.55-27.47a50.86,50.86,0,0,1,0-8.64c1.18-17.51,9.94-38.29,19.62-45.92a18.33,18.33,0,0,1,11.78-3.93h5.11C658.07,107.69,671,110.83,680.58,117.35Z"/><path class="cls-4" d="M643.3,248.46c-2.43,4.2-6.86,4.64-10.6,6.66C620.6,261.7,613.42,273.55,606,285c2,6.21-2.45,8.95-2.76,14.13-1.91-1.63-1.21-5.84-3.92-6.68-.7-14,5.09-21.61,11-29.05a26,26,0,0,0,4.32-4.32C621.54,252.86,631.16,249.39,643.3,248.46Z"/><path class="cls-5" d="M614.65,259.05a26,26,0,0,1-4.32,4.32A25.59,25.59,0,0,1,614.65,259.05Z"/><path class="cls-4" d="M606,107.93c-2.58,2.83-3.3,7.39-5.89,10.2-2,2.14-5.54,3.51-8.24,5.5-7.57,5.54-14.13,13.72-21.2,20-9.94,8.84-24,12.07-33.36,21.6-.62,1.35-.35,3.58-.39,5.49-9.93-3.55-20.46-9.9-34.94-10.2,7-6.5,17.6-9.12,29-10.21,5-.47,9.63-1,14-1.76a33.07,33.07,0,0,0,9.53-2.56l.25-.12a35.18,35.18,0,0,0,7.2-3.8C577.38,131.37,587.45,114.08,606,107.93Z"/><path class="cls-2" d="M575.79,349.33c4.4,9.2,5.18,18.85,7.06,31.8-4.4-10.48-7.34-20.4-13.74-28.26-12.65-15.47-38-16-61.62-11.4-8.43,1.65-16.67,4.58-25.13,5.11-15.79,1-28.5-3.42-41.61-8.23-.17.58-.35,1.18-.5,1.8l-12.54-2.07c1.88-1.85,3.88-3.4,5.19-5.63-13-10.12-21.08-23.51-22.76-44-1.69-20.23,3.29-41,9.42-56.91,12.52-32.45,30.35-60.39,65.16-69.09-6.24-7.22-12.11-15.33-11-29.83s11.57-34.94,21.19-42.79A43.5,43.5,0,0,1,522.16,81a25.09,25.09,0,0,1,2.6.22c6.47.81,13.49,5.58,17.27,11.38,5.13,7.87,4.73,20.52-9.82,18.06a2.86,2.86,0,0,1,.29-.33s0-.06.1-.09a11.69,11.69,0,0,0,1.14-1.07s0,0,0,0c1.9-1.53,4.18-2.69,4.72-5.54-6.27-15.79-27.22-8.22-35.33,2-6.46,8.1-13.46,23.17-11.61,35.87v.06a14.43,14.43,0,0,0,.68,3.12,21.6,21.6,0,0,0,3.86,7.65l7.13,6.72c-.83.63-1.64,1.26-2.42,1.92,22.24,2,35.67,9.35,49.06,19.23,12.23,9,24,22.14,25.13,43.18,1.46,26.41-9.13,45.89-24.74,60.07-13.75,12.51-35.47,18.77-56.12,8.23-.7-.35-2.29-1.48-3.54-2.35-15.46-11-11.05-46.52,8.25-49.07a22.68,22.68,0,0,1,5.1,0c9.75,1.46,21.74,11.28,15.7,23.16-2.77-6.19-7.31-14.39-16.48-13-5.56.87-9.21,8.26-9.82,13.34-.87,7.37,1.22,11.74,4.69,14.51l0,0c2.36,2.17,6.76,3.82,11.54,4.74l.24,0a37.18,37.18,0,0,0,9.72.77l.79,0a3.93,3.93,0,0,0,.49,0,22.18,22.18,0,0,0,4.61-.81c.27-.06.51-.13.72-.19,10.27-2.77,17.9-10.36,23.7-18.23,6.35-8.64,9.88-20.56,9.82-33.37-.13-25.73-18.09-37.79-34.16-45.92-9.76-4.95-20.88-8.66-32.18-7.07-10.53,1.49-19.43,6.26-27.87,12.56-14.94,11.15-23.92,30.32-31,49.46-6.48,17.51-11.84,49.81-.78,67.12,8.61,13.51,26.74,23.33,49.45,21.58,11.48-.89,22.55-5.92,34.55-5.88.76,0,1.55,0,2.31,0a4.66,4.66,0,0,0,1,0h.13C545.56,323.65,566.24,329.48,575.79,349.33Z"/><path class="cls-3" d="M580.1,100.87c-5.69,5.22-10.82,9.94-16.87,15.3-5.13,4.54-11.52,11.56-18.06,13.74s-14.29,1.74-20.8,2.75c-10.72,1.65-19.11,4.62-24.3,11.58a18.42,18.42,0,0,1,3.49-4.9c4.34-4.06,10.6-4.61,16.88-7.07,0-6.11-.68-11.06.78-16.1,3.17-1.46,8-3.25,11.28-5.82a2.86,2.86,0,0,0-.29.33c14.55,2.46,14.95-10.19,9.82-18.06-3.78-5.8-10.8-10.57-17.27-11.38a25.09,25.09,0,0,0-2.6-.22l0-1.6a4.44,4.44,0,0,0,4.52-2.11c-26.87-6.26-62.46-5.53-83.07,6.17l-.08-.15c9.68-5.47,21.54-8.59,35.65-9.94C521,69.36,556.29,84.72,580.1,100.87Z"/><path class="cls-4" d="M558.51,496.52c1.26,1.75,3.69,3.77,3.15,6.29-2.24.88-4.86-.93-7.07-2-12.36-5.63-22.92-12.75-19.63-34.55.9-.68.15-3,.39-4.31v-16.5c2.95,12.45,4,24,9,33.37C548.11,485.85,554,490.29,558.51,496.52Z"/><path class="cls-6" d="M565.58,617.82c-2.94,6.35-6.39,12.19-15.32,12.56h-4.7c-18-1.65-17.51-27.62-35.33-29.83-10.84-1.34-16.9,6.79-23.16,12.17,2.62-12.56,1.61-25.92,5.49-35.72,4.22-10.62,19.5-20,32.2-13.34C543.7,573.62,542.28,613.14,565.58,617.82Z"/><path class="cls-3" d="M554.84,145.88l-.25.12a33.07,33.07,0,0,1-9.53,2.56A52.62,52.62,0,0,0,554.84,145.88Z"/><path class="cls-5" d="M545.56,630.38h4.7C549.59,631,546.23,631,545.56,630.38Z"/><path class="cls-4" d="M551.45,260.23c-3.93,7.78-13.65,19.09-25.28,22.55-.21.06-.45.13-.72.19a29.83,29.83,0,0,1-5.1.83l-.79,0a44.73,44.73,0,0,1-9.72-.77l-.24,0c-.57-.14-1.14-.27-1.73-.43-3.57-.91-7.11-2.14-9.81-4.31l0,0c-7.81-7.29-4.45-28.09,7.48-27.46,7,.37,11.4,6.43,13.74,12.95,1.46.28,1-1.37,1.58-2C529.42,269.52,543.29,266,551.45,260.23Z"/><path class="cls-4" d="M554.59,212c-6.64-3.16-12.38-5.82-18.46-9.42-6.86-4.1-16.61-10.08-26.29-11.38-7-.94-12.8,1.72-18.06,5.1-6.24,4-15,11.73-18.84,17.27-6.57,9.51-9.11,27.11-10.6,43.18-1,11.12-1.07,25.65,2,33.76,2.75,7.36,8.68,14.81,13.74,17.66a98,98,0,0,0,25.52,9c3.62.65,7.48.18,11,1.18,2.62.74,8.94,3.16,9.82,4.31.19.26-.92.49-1.19.39-.54-.89-2.72-.15-3.92-.39-12.17-.95-24.56,4.95-36.12,5.89-22.33,1.82-40.95-8-49.45-22-3.9-6.41-5.39-15.09-5.5-24.73v-6.28c.05-18.15,5.58-33.26,12.56-48.28,6.41-13.79,12.13-25.58,21.59-33.76,8.16-7,20.67-13.84,34.15-14.92H502C525.44,181.64,545.1,194.66,554.59,212Z"/><path class="cls-3" d="M538.5,103.61c-.54,2.85-2.82,4-4.72,5.54a6.77,6.77,0,0,0,2-3.57C537.1,98,528.68,94,521.61,95c-16.61,2.21-30.33,25.91-30.22,42,0,1.41,0,3,.17,4.47-1.85-12.7,5.15-27.77,11.61-35.87C511.28,95.39,532.23,87.82,538.5,103.61Z"/><path class="cls-4" d="M521.61,95c7.07-.93,15.49,3,14.13,10.61a6.77,6.77,0,0,1-2,3.57s0,0,0,0a6.12,6.12,0,0,0-1.14,1.07c-.06,0-.1.07-.1.09-3.23,2.57-8.11,4.36-11.28,5.82-1.46,5-.73,10-.78,16.1-6.28,2.46-12.54,3-16.88,7.07a18.42,18.42,0,0,0-3.49,4.9.07.07,0,0,1-.05.06,22.84,22.84,0,0,0-1.9,3.08s0,0,0,0a12.9,12.9,0,0,1-1.6,1.72,6.73,6.73,0,0,1-4.25-4.51,27.79,27.79,0,0,1-.68-3.12v-.06c-.15-1.51-.17-3.06-.17-4.47C491.28,120.88,505,97.18,521.61,95Z"/><path class="cls-3" d="M532.6,110.26a6.12,6.12,0,0,1,1.14-1.07A11.69,11.69,0,0,1,532.6,110.26Z"/><path class="cls-4" d="M526.72,77.31a4.44,4.44,0,0,1-4.52,2.11c-1.36-.08-2.78-.47-4.12-.53a111.57,111.57,0,0,0-30.22,2.35c-6,1.4-12,1.59-15.71,3.13-8.72,3.67-14.89,13.33-20.41,20.81-1.81,2.44-4.68,5.08-5.49,7.85-1,3.45.72,7.72-1.57,11-3.58-10.68-9.12-19.41-18.45-24.33.26-1.58,1.72-2,2.35-3.14a29.61,29.61,0,0,0,4.71-4.72,38.15,38.15,0,0,1,10.36-8.35C464.26,71.78,499.85,71.05,526.72,77.31Z"/><path class="cls-5" d="M523.18,323a10.18,10.18,0,0,0-2,.05H521l-1,0a.94.94,0,0,1-.74-.41C520.46,322.88,522.64,322.14,523.18,323Z"/><path class="cls-3" d="M522.2,79.42l0,1.6a43.5,43.5,0,0,0-27.24,8.85c-9.62,7.85-20.06,28.16-21.19,42.79s4.75,22.61,11,29.83c-34.81,8.7-52.64,36.64-65.16,69.09-6.13,15.87-11.11,36.68-9.42,56.91,1.68,20.45,9.72,33.84,22.76,44-1.31,2.23-3.31,3.78-5.19,5.63a16.08,16.08,0,0,0-3.84,5.37c-4.08,9.73-.65,23.59,1.57,33-22.76,3.59-42.22-4.75-53.36-19.91.5.62,1,1.26,1.55,1.86,9,10.29,27.67,21.35,46.32,18.05,1.33-.23,3.64.51,4.31-.39.73-3.9-2.83-10.23-2.35-16.48v-5.1c-.24-6.14,1.57-10.21,3.14-14.52-10.71-.51-22.63-3.22-28.26-10.21a26,26,0,0,1-3.93-8.64c-1.92-7.92-1.85-14.46-3.92-21.19-3.69-11.88-8.66-20.05-16.49-29.05-6.52-7.5-12.34-12-21.24-13.39l.59-4a59,59,0,0,0,11.23.11c16.12-1.09,27.52-8.31,35.33-21.2,6.74-11.14,14-27.82,13.34-42.79-1.09-25.42-17.33-40.43-36.9-49.45,5.3-13.63,10.95-28,27.09-29.83,27.43-3.21,38.53,18,31,44.74,4.43-2.75,9.75-5,11.38-9.81,2.32-6.76.79-16.21-1.17-23.16a35.39,35.39,0,0,0-17.67-22.37,54,54,0,0,1,18.13-16.36l.08.15a38.15,38.15,0,0,0-10.36,8.35,30.47,30.47,0,0,0-4.71,4.72c-.63,1.19-2.09,1.56-2.35,3.14,9.33,4.92,14.87,13.65,18.45,24.33,2.29-3.27.57-7.54,1.57-11,.81-2.77,3.68-5.41,5.49-7.85,5.52-7.48,11.69-17.14,20.41-20.81,3.71-1.54,9.71-1.73,15.71-3.13a111.57,111.57,0,0,1,30.22-2.35C519.42,79,520.84,79.34,522.2,79.42ZM418,129.91c5.67.3,8.72,7.53,16.09,5.49-.35-18.12-13.41-26.78-31.79-24.72-15.78,1.76-22.71,16.48-26.7,29.44,8.66,2.36,14.7,9.37,20.8,12.95,3.24-6.85,4.08-18.1,11-20.8,1.26-.5,3.47-.29,5.49-.79C414.63,131.05,416.52,129.82,418,129.91Z"/><path class="cls-3" d="M525.45,283a22.18,22.18,0,0,1-4.61.81,3.93,3.93,0,0,1-.49,0A29.83,29.83,0,0,0,525.45,283Z"/><path class="cls-5" d="M521,323.08a4.66,4.66,0,0,1-1,0Z"/><path class="cls-3" d="M509.84,283.07a44.73,44.73,0,0,0,9.72.77A37.18,37.18,0,0,1,509.84,283.07Z"/><path class="cls-6" d="M486.68,8.62c21.37,1,36.24,6.41,51,13-48.88.18-78.93,19.19-101.27,45.93a5.05,5.05,0,0,1-2.74,1.57c-1.11,1.37-2.95,2-4.32,3.14.08-.57.65-.66.78-1.18C421,77.46,413.47,85.58,406,93.67a2,2,0,0,1-.37.15c-1.7.17-4.24-.48-5.25.37-2.91.24-5.46.83-8.25,1.18a8.46,8.46,0,0,0-5.5,1.57h.4c-1.77,1-3.71,1.78-5.5,2.75-.05-.44.57-.61,0-.79-9.05,5.74-15,14.57-20,24.34-.24,1.46-1.11,2.29-1.57,3.53a8.38,8.38,0,0,0-2,5.11,11.85,11.85,0,0,1-1.18,4.7h-2.36c-.06-.46-.71-.32-1.17-.38a37.28,37.28,0,0,0-12.11,0h-1.24c-1.83-.28-5.93.34-2,.38-1.62.62-3.86.6-5.89.79a8.33,8.33,0,0,0-5.49,1.57h.39a73.2,73.2,0,0,1-7.46,3.54c-2.2.53-5.87,1.69-6.28,2.74a17.09,17.09,0,0,1-4.71,2c-1.9.72-3.86,1.38-5.11,2.75a64.36,64.36,0,0,0-7.45,5.1c.11-.8,1.07-.76,1.18-1.57-5.78,4.78-13.11,9.88-18.85,16.09-5.53,6-12.16,12.74-14.91,19.64-.2.45-.79,1.82.39.78-9.25,18.09-13.37,41.32-16.09,65.94-.2-4.44-.59,1.44-.4,3.14v.83a51.15,51.15,0,0,0,0,14.09v1.18c-.21,1.72.24,7.06.4,2.74a138.54,138.54,0,0,0,12.95,47.51c-.37-.23-.59-1.1-.78-.41,5.95,14.13,18.07,29.88,30.22,40.44,1.7,1.49,7.35,7,4.32,3.14,1.09.74,2.05,1.61,3.14,2.35,1.39,1.75,3.57,2.72,5.5,3.92,2.33.68,3.7,2.33,5.88,3.14.18.35.35.7.79.8,1.24,1.36,3.21,2,5.1,2.74.7,0,.83.48,1.57.38a47.09,47.09,0,0,1,6.28,2.76c-.09.74,7.81,3.94,6.28,2.35,6.41,2.62,14,4,22,5.1h-1.57a83.42,83.42,0,0,0,20.81-.38h-1.64c8.31,0,16.14-3.34,23.62-2.76,5.54.43,10.31,4.12,16.09,3.53,0,.37.48.31.79.41a10.21,10.21,0,0,0,6.28,0c.46.06.7-.1.78-.41,1.92-.15,3.39-.79,5.5-.77,4.32-.53,6.24-3.44,7.85-6.68,4.6,3.38,8.79,7.18,16.09,7.86,2.18.31,4.43.54,5.89,1.57.39,3.79,1.7,6.66,2.75,9.8-.37-.21-.59-1.08-.78-.38,2.59,5.12,7.58,12.34,12.16,14.52.44.19,1.87.75.79-.39,1.78,1,3.73,1.76,5.49,2.75-.09.74,3,1.71,5.11,1.58,1.37.17,3,.15,3.92.77-14.8,8.37-30.92,27.08-32.58,48.66-.52,6.82.83,14.23,1.17,20.42.7,12.72.27,24.68,1.34,36.52l-10.82.62a137.42,137.42,0,0,0-3.07-19.47c-6.43-26.42-18.67-48.88-35.72-65.55-8.9-8.74-19.24-13.88-34.15-16.5-54.48-9.57-103-34.49-124.44-77.72-5.51-11.16-8.63-23.65-12.16-38.45-6.24-26.13-12.63-59.43-6.28-89.5,5.73-27.18,15.39-51.62,31.79-69.09a72.59,72.59,0,0,0,7.07-7.07c11-9.63,22.59-18.75,36.5-25.51,10.29-18.1,26.15-30.64,47.1-38.08,13-15.87,26.74-31.9,48.67-38.47,7-2.06,15.38-2.41,22.78-5.88,3.44-1.62,5.07-5.87,7.85-8.64C436.17,19.08,465.31,7.62,486.68,8.62Z"/><path class="cls-3" d="M509.84,424.3c-4.71-.26-10.47.54-14.52-.39C500,424.18,505.78,423.38,509.84,424.3Z"/><path class="cls-3" d="M507.87,282.6c.59.16,1.16.29,1.73.43-4.78-.92-9.18-2.57-11.54-4.74C500.76,280.46,504.3,281.69,507.87,282.6Z"/><path class="cls-5" d="M502,178.58h-5.5C497.43,177.93,501.05,177.93,502,178.58Z"/><path class="cls-3" d="M500,144.3a26.58,26.58,0,0,1-1.9,3.08A22.84,22.84,0,0,1,500,144.3Z"/><path class="cls-4" d="M500,407.43c-17.84,1.09-33.62-4.27-33.36-21.2.13-8.77,6.74-13.86,13.35-17.27a4.45,4.45,0,0,1,3.13.79c4.76-4,13.87-.89,19.24.39-4,4.43-12.8,6.17-14.13,13.34-1.57,8.58,1.44,16.69,6.28,20.8C496.1,405.62,498.28,406.38,500,407.43Z"/><path class="cls-3" d="M496.49,149.14a12.9,12.9,0,0,0,1.6-1.72,28.33,28.33,0,0,0-2,4.86,21.6,21.6,0,0,1-3.86-7.65A6.73,6.73,0,0,0,496.49,149.14Z"/><path class="cls-3" d="M492.24,144.63a14.43,14.43,0,0,1-.68-3.12A27.79,27.79,0,0,0,492.24,144.63Z"/><path class="cls-6" d="M491,975.66c-3.23,9.31-11,14.11-22.38,15.29H462c-17.51-1.61-23.84-15.59-22.76-34.94.65-11.76,5-23.33,7.06-35.32,2.22-12.66,3.81-186.56,3.93-199.63.88-.81.12-3.28.38-4.71v-13c-.23-1.34.5-3.65-.38-4.33-2.34-48.23-5.92-95.46-8.64-143.27-.53-9-.83-17.85-1.64-26.45l10.82-.62c.06.77.15,1.57.24,2.34,1.31,12,3.4,23.67,5.1,35.33,3.69,25.25,2,51,3.14,77.72,1.05,24.67,2.38,51.19,3.53,77.33.53,12.11,2,186.42,2,200,0,12.39-1.5,31.37,1.58,39.25C469.64,969.35,481.53,972.2,491,975.66Z"/><path class="cls-7" d="M476.87,422.36c-2.14.13-5.2-.84-5.11-1.58A21.52,21.52,0,0,1,476.87,422.36Z"/><path class="cls-5" d="M462,991h6.67A11.48,11.48,0,0,1,462,991Z"/><path class="cls-7" d="M466.27,418c1.08,1.14-.35.58-.79.39-4.58-2.18-9.57-9.4-12.16-14.52.19-.7.41.17.78.38.67,2,2,3.19,2.75,5.11a32,32,0,0,0,7.84,7.86C465.76,417,465.48,418,466.27,418Z"/><path class="cls-4" d="M465.09,346.19c.9,3.69.52,8.64,1.57,12.17-6.41,6-13.46,11.41-15.7,21.58-11.89-5-14-26.1-9.81-41.2C448.19,342.15,456.76,344.05,465.09,346.19Z"/><path class="cls-3" d="M456.85,409.39c2.48,2.76,5.1,5.36,7.84,7.86A32,32,0,0,1,456.85,409.39Z"/><path class="cls-5" d="M450.18,699.07c.88.68.15,3,.38,4.33C449.67,702.72,450.41,700.41,450.18,699.07Z"/><path class="cls-5" d="M450.56,716.35c-.26,1.43.5,3.9-.38,4.71C450.41,719.61,449.67,717.16,450.56,716.35Z"/><path class="cls-7" d="M445.46,392.91c-7.3-.68-11.49-4.48-16.09-7.86-1.61,3.24-3.53,6.15-7.85,6.68,3.73-1.38,6.08-4.12,7.85-7.46,1.7,1.17,2.77,3,4.71,3.92A65.87,65.87,0,0,0,445.46,392.91Z"/><path class="cls-3" d="M429.37,384.27c1.22.1,3.27,2.74,4.71,3.92C432.14,387.26,431.07,385.44,429.37,384.27Z"/><path class="cls-4" d="M434.08,135.4c-7.37,2-10.42-5.19-16.09-5.49-1.47-.09-3.36,1.14-5.11,1.57-2,.5-4.23.29-5.49.79-6.92,2.7-7.76,13.95-11,20.8-6.1-3.58-12.14-10.59-20.8-12.95,4-13,10.92-27.68,26.7-29.44C420.67,108.62,433.73,117.28,434.08,135.4Z"/><path class="cls-5" d="M433.29,91.83a29.61,29.61,0,0,1-4.71,4.72A30.47,30.47,0,0,1,433.29,91.83Z"/><path class="cls-7" d="M430.15,71c-.13.52-.7.61-.78,1.18-2.31,1.61-4.19,3.66-6.67,5.1a25.23,25.23,0,0,0-4.32,4.32,30,30,0,0,0-4.71,4.71q-.33.25-.66.54c-2.48,2.12-4.47,4.72-7,6.76,0,0,0,0-.06,0C413.47,85.58,421,77.46,430.15,71Z"/><path class="cls-5" d="M428.19,275.54v6.28A10.36,10.36,0,0,1,428.19,275.54Z"/><path class="cls-4" d="M421.91,359.54c-.48,6.25,3.08,12.58,2.35,16.48-1.32.26-3.64-.5-4.31.39-18.65,3.3-37.29-7.76-46.32-18.05-.54-.6-1.05-1.24-1.55-1.86-.09-.12-.17-.26-.24-.35-.35-.45-.65-.92-1-1.36s-.43-.64-.61-1a15,15,0,0,1-1-1.57c-6.6-11.61-7.19-26.77-6.52-43,.06-1,.11-2,.13-3,0-.68.06-1.37.11-2.07.66-1.07.66-4.82,0-5.89-.19-1.15-.41-2.29-.65-3.39a13,13,0,0,0-.31-1.42,13.72,13.72,0,0,0-.5-2,4.88,4.88,0,0,0-.2-.65c-2.11-7.64-5.65-13.85-12.27-17-.15-.09-.33-.17-.48-.24A11.85,11.85,0,0,0,345,272.4h-.05c-.61-.15-1.26-.29-1.92-.39-.54-.66-3.77-.66-4.32,0-7.74.65-14.76,2.05-20.25,5l-.13.07a20.49,20.49,0,0,0-4.74,2.81,11.77,11.77,0,0,0-2.55,3.25h0c-2.71,3.58-4.32,8.27-4.49,14.41,3.73-3.3,4.14-8.95,8.63-12.17,3.84-2.76,21-6.41,27.87-3.15,3.6,1.73,5.78,8.83,6.28,13.35,1.32,11.64-2.79,23.81-2,36.11A63.41,63.41,0,0,0,361.85,369a26.41,26.41,0,0,0,4.32,4.33,2.9,2.9,0,0,1,1,.66.62.62,0,0,1,.11.17c.09.19,0,.29-.28.33-35.09,2.5-60.84-15.06-76.55-34.14-14.87-18.08-24.36-41.7-24.73-71.44v-3.93c1.86-28.06,4.69-53.71,17.67-71.83,8.85-12.37,20.82-24.23,36.5-30.62,7.07-2.88,11.93-6.67,20.81-7.06,1.33-.25,3.64.5,4.32-.4h4.31c.68.9,3,.15,4.32.4,23.33,1.13,36,12.92,39.64,33.76v4.7c-1.34,8.46-4.42,19.4-9,27.74a4.85,4.85,0,0,1-.3.54c-.31.53-.63,1.06-.94,1.55s-.44.72-.68,1.12l-.76,1.15a1.21,1.21,0,0,1-.15.22A24.87,24.87,0,0,1,376,232c-9,6.48-28.06,6.24-33.16-3.05,0,0,0,0-.05-.09a22.64,22.64,0,0,1-1.59-5.78c0-.07,0-.13,0-.22-1-9.92,4-23,10.49-24.22,7.15-1.33,10.66,4.07,15.7,5.88.06-.32.39-.39.39-.78-1.33-2-3.38-3.17-4.71-5.1,1.66,0,1.88,1.52,3.53,1.56,2.58-3.83,3.63-13.71.79-18-1.42-2.16-6.43-3.89-10.6-4.71-4.47-.89-10.31-2.14-13.74-1.58-2.13.36-5.1,3.56-7.46,5.5-19.9,16.3-40.47,48.91-31.79,86.36,4-1,5.17-3.4,7.85-4.71,6.95-3.4,20.33-5.34,29.05-5.89a49.51,49.51,0,0,1,10.55.35c8.9,1.42,14.72,5.89,21.24,13.39,7.83,9,12.8,17.17,16.49,29.05,2.07,6.73,2,13.27,3.92,21.19a26,26,0,0,0,3.93,8.64c5.63,7,17.55,9.7,28.26,10.21-1.57,4.31-3.38,8.38-3.14,14.52C421.26,355.23,421.26,358.73,421.91,359.54Z"/><path class="cls-5" d="M420,376.41c.67-.89,3-.13,4.31-.39C423.59,376.92,421.28,376.18,420,376.41Z"/><path class="cls-5" d="M421.91,354.44v5.1C421.26,358.73,421.26,355.23,421.91,354.44Z"/><path class="cls-3" d="M422.7,77.31a26,26,0,0,1-4.32,4.32A25.23,25.23,0,0,1,422.7,77.31Z"/><path class="cls-3" d="M408.17,392.5H416c-.08.31-.32.47-.78.41H409C408.65,392.81,408.19,392.87,408.17,392.5Z"/><path class="cls-7" d="M409,392.91h6.28A10.21,10.21,0,0,1,409,392.91Z"/><path class="cls-3" d="M406,93.64c2.53-2,4.52-4.64,7-6.76C410.64,89.09,409.22,92.25,406,93.64Z"/><path class="cls-3" d="M406,93.64a1.25,1.25,0,0,1-.19.15l.13-.12S406,93.64,406,93.64Z"/><path class="cls-3" d="M406,93.67l-.13.12a.63.63,0,0,1-.24,0A2,2,0,0,0,406,93.67Z"/><path class="cls-3" d="M400.33,94.19c1-.85,3.55-.2,5.25-.37A10.45,10.45,0,0,1,400.33,94.19Z"/><path class="cls-3" d="M394,190.75c.31,10.65-5,22.62-9.75,30.88,4.54-8.34,7.62-19.28,9-27.74.66-.67.66-4,0-4.7-3.63-20.84-16.31-32.63-39.64-33.76-.68-.9-3-.16-4.32-.4H345c-1.34.24-3.64-.5-4.32.4-8.88.39-13.74,4.18-20.81,7.06-15.68,6.39-27.65,18.25-36.5,30.62-13,18.12-15.81,43.77-17.67,71.83-.65.42-.65,3.51,0,3.93.37,29.74,9.86,53.36,24.73,71.44C306.12,359.39,331.87,377,367,374.45c.3,0,.37-.14.28-.33.19.25.35.49.5.72-32.76,2.33-56.57-11.53-72.62-28.65a108.16,108.16,0,0,1-28.26-57.3c-4.45-26.81-.33-53.23,6.28-75.37a70.49,70.49,0,0,1,15.31-27.47c6.52-7.45,14.24-15.23,22.38-20,3.35-2,7.89-3.32,12.16-5.11s8.85-5.36,13.35-5.89c14.65-1.74,30.24-.43,40,6.28C385.75,167.74,393.67,177.6,394,190.75Z"/><path class="cls-5" d="M393.25,189.19c.66.67.66,4,0,4.7Z"/><path class="cls-7" d="M386.58,96.94a8.46,8.46,0,0,1,5.5-1.57,21.76,21.76,0,0,1-5.1,1.57Z"/><path class="cls-3" d="M383.05,223.72c.31-.49.63-1,.94-1.55-.52.92-1.05,1.81-1.62,2.67C382.61,224.44,382.83,224.07,383.05,223.72Z"/><path class="cls-3" d="M381.61,226l.76-1.15C382.13,225.23,381.87,225.62,381.61,226Z"/><path class="cls-7" d="M381.48,98.9c.57.18-.05.35,0,.79-1.57.78-2.57,2.13-4.32,2.74a35.7,35.7,0,0,0-5.1,5.11v.39c-1.74,1.13-2.7,3-3.93,4.71-1.83,3.53-4.14,6.59-5.88,10.2-.33.07-.4.4-.79.4C366.48,113.47,372.43,104.64,381.48,98.9Z"/><path class="cls-3" d="M381.46,226.21a22.43,22.43,0,0,1-5.48,6.15c-4.84,3.3-19.36,6.57-27.08,3.14a12.37,12.37,0,0,1-6.08-6.58c5.1,9.29,24.18,9.53,33.16,3.05A24.87,24.87,0,0,0,381.46,226.21Z"/><path class="cls-3" d="M377.16,102.43a36.76,36.76,0,0,1-5.1,5.11A35.7,35.7,0,0,1,377.16,102.43Z"/><path class="cls-3" d="M370.88,354.79c.31.44.61.91,1,1.36C371.49,355.7,371.19,355.23,370.88,354.79Z"/><path class="cls-3" d="M370.27,353.82c.18.33.4.66.61,1C370.67,354.46,370.45,354.15,370.27,353.82Z"/><path class="cls-3" d="M369.31,352.25a15,15,0,0,0,1,1.57A13.17,13.17,0,0,1,369.31,352.25Z"/><path class="cls-7" d="M368.46,391.73h1.64a83.42,83.42,0,0,1-20.81.38h1.57c6.16.28,11.43-.35,17.27-.38Z"/><path class="cls-3" d="M372.06,107.93c-1.42,1.46-2.29,3.46-3.93,4.71C369.36,111,370.32,109.06,372.06,107.93Z"/><path class="cls-3" d="M367.35,182.12c2.84,4.34,1.79,14.22-.79,18-1.65,0-1.87-1.52-3.53-1.56.24,1.46,3.16,3.63,4.71,5.1,0,.39-.33.46-.39.78-5-1.81-8.55-7.21-15.7-5.88-6.5,1.21-11.49,14.3-10.49,24.22-1.44-10.31,2.7-23,10.88-24.62,5.45-1.05,10.34,3.14,14.52,5.5-3.25-3.36-7.54-9.8-13.73-10.6-8.64-1.13-15.9,6.74-18.85,12.17-9.46,17.44-2.62,41.8,13,47.1a25.27,25.27,0,0,0,4.86,1.07l-.59,4a49.51,49.51,0,0,0-10.55-.35c-8.72.55-22.1,2.49-29.05,5.89-2.68,1.31-3.86,3.71-7.85,4.71-8.68-37.45,11.89-70.06,31.79-86.36,2.36-1.94,5.33-5.14,7.46-5.5,3.43-.56,9.27.69,13.74,1.58C360.92,178.23,365.93,180,367.35,182.12Z"/><path class="cls-3" d="M367.13,374a2.9,2.9,0,0,0-1-.66,24.59,24.59,0,0,0-4.32-4.33,63.41,63.41,0,0,1-14.52-37.29c-.83-12.3,3.28-24.47,2-36.11-.5-4.52-2.68-11.62-6.28-13.35-6.87-3.26-24,.39-27.87,3.15-4.49,3.22-4.9,8.87-8.63,12.17.17-6.14,1.78-10.83,4.49-14.41-2,3.71-2.64,8.66-4.1,13.61,2.9-3.9,4.12-9.22,8.64-12.16,5.31-3.49,21.52-5.8,27.86-2.75,3.43,1.65,5.78,8.87,6.29,13.35,1.28,11.58-2.45,23.44-2,34.93.66,15.35,5.8,27.56,12.95,36.51C362.73,369.21,365.26,371.31,367.13,374Z"/><path class="cls-5" d="M367.74,203.71c-1.55-1.47-4.47-3.64-4.71-5.1C364.36,200.54,366.41,201.76,367.74,203.71Z"/><path class="cls-5" d="M363,298.3c.66,1.07.66,4.82,0,5.89Z"/><path class="cls-3" d="M363,298.3v5.89c0,.7-.07,1.39-.11,2.07a74.8,74.8,0,0,0-.28-9.53c-.07-.6-.16-1.21-.26-1.82C362.62,296,362.84,297.15,363,298.3Z"/><path class="cls-5" d="M361.85,369a24.59,24.59,0,0,1,4.32,4.33A26.41,26.41,0,0,1,361.85,369Z"/><path class="cls-3" d="M362.79,309.25c-.67,16.23-.08,31.39,6.52,43a52.55,52.55,0,0,1-7.06-22.15C361.61,323.3,362.42,316.4,362.79,309.25Z"/><path class="cls-3" d="M362.07,293.49c-.15-.68-.33-1.36-.5-2A13.72,13.72,0,0,1,362.07,293.49Z"/><path class="cls-3" d="M361.46,123.24c.39,0,.46-.33.79-.4-.83,1.4-1.31,3.14-2.36,4.32v-.39C360.35,125.53,361.22,124.7,361.46,123.24Z"/><path class="cls-7" d="M359.89,126.77v.39a23.85,23.85,0,0,1-2,4.72A8.38,8.38,0,0,1,359.89,126.77Z"/><path class="cls-3" d="M349.1,273.86c6.62,3.12,10.16,9.33,12.27,17C359.19,283.84,354.57,276.89,349.1,273.86Z"/><path class="cls-3" d="M354.39,136.58H339.87v-.38h13.35C353.68,136.26,354.33,136.12,354.39,136.58Z"/><path class="cls-5" d="M353.61,155.43c-1.33-.25-3.64.5-4.32-.4C350.62,155.27,352.93,154.53,353.61,155.43Z"/><path class="cls-7" d="M353.22,136.2H341.11A37.28,37.28,0,0,1,353.22,136.2Z"/><path class="cls-3" d="M345,272.4a11.85,11.85,0,0,1,3.64,1.22A23.19,23.19,0,0,0,345,272.4Z"/><path class="cls-5" d="M340.66,155.43c.68-.9,3-.16,4.32-.4C344.3,155.93,342,155.18,340.66,155.43Z"/><path class="cls-3" d="M343,272c.66.1,1.31.24,1.92.39-7.41-1.11-19.17,1.29-26.49,4.58,5.49-2.92,12.51-4.32,20.25-5Z"/><path class="cls-5" d="M343,272h-4.32C339.24,271.35,342.47,271.35,343,272Z"/><path class="cls-3" d="M342.77,228.83a7.94,7.94,0,0,1-.55-1.18,19.61,19.61,0,0,1-1-4.6A22.64,22.64,0,0,0,342.77,228.83Z"/><path class="cls-7" d="M339.87,136.2v.38h-2C333.94,136.54,338,135.92,339.87,136.2Z"/><path class="cls-7" d="M326.53,138.94a8.33,8.33,0,0,1,5.49-1.57,22.24,22.24,0,0,1-5.1,1.57Z"/><path class="cls-7" d="M328.88,387c1.53,1.59-6.37-1.61-6.28-2.35A59.07,59.07,0,0,1,328.88,387Z"/><path class="cls-3" d="M318.31,277.05a21.75,21.75,0,0,0-7.29,6.06,11.77,11.77,0,0,1,2.55-3.25A20.49,20.49,0,0,1,318.31,277.05Z"/><path class="cls-7" d="M313.18,145.22c.41-1.05,4.08-2.21,6.28-2.74A19.21,19.21,0,0,1,313.18,145.22Z"/><path class="cls-3" d="M316.32,381.9c-.74.1-.87-.42-1.57-.38-1.44-1.17-3.45-1.79-5.1-2.74-.44-.1-.61-.45-.79-.8C311.3,379.34,314.1,380.35,316.32,381.9Z"/><path class="cls-7" d="M309.65,378.78c1.65,1,3.66,1.57,5.1,2.74C312.86,380.8,310.89,380.14,309.65,378.78Z"/><path class="cls-3" d="M308.47,147.18c-1.44,1.18-3.45,1.79-5.11,2.75C304.61,148.56,306.57,147.9,308.47,147.18Z"/><path class="cls-3" d="M297.48,370.92c1.76,1.38,4,2.29,5.5,3.92C301.05,373.64,298.87,372.67,297.48,370.92Z"/><path class="cls-7" d="M297.09,153.46c-.11.81-1.07.77-1.18,1.57-3.23,2.14-5.72,5-9,7.07a24.88,24.88,0,0,0-4.32,4.32h-.39a25.53,25.53,0,0,0-4.32,4.31v.4c-2.33,1.72-4,4.07-5.89,6.28-2.63,4.29-6,7.87-8.24,12.56-1.18,1-.59-.33-.39-.78,2.75-6.9,9.38-13.63,14.91-19.64C284,163.34,291.31,158.24,297.09,153.46Z"/><path class="cls-7" d="M294.34,368.57c3,3.9-2.62-1.65-4.32-3.14-12.15-10.56-24.27-26.31-30.22-40.44.19-.69.41.18.78.41,4,8.58,9,16.11,14.13,23.55,2,2.48,3.75,5.14,6.28,7.06v.39a79.48,79.48,0,0,0,7.46,7.45C290.85,365,292.12,367.27,294.34,368.57Z"/><path class="cls-3" d="M286.88,162.1a26,26,0,0,1-4.32,4.32A24.88,24.88,0,0,1,286.88,162.1Z"/><path class="cls-3" d="M281,356.4a77.15,77.15,0,0,1,7.46,7.45A79.48,79.48,0,0,1,281,356.4Z"/><path class="cls-3" d="M282.17,166.42a25.91,25.91,0,0,1-4.32,4.31A25.53,25.53,0,0,1,282.17,166.42Z"/><path class="cls-3" d="M274.71,349c2.36,2.09,4.08,4.81,6.28,7.06C278.46,354.09,276.67,351.43,274.71,349Z"/><path class="cls-3" d="M277.85,171.13c-2,2.05-3.66,4.44-5.89,6.28C273.82,175.2,275.52,172.85,277.85,171.13Z"/><path class="cls-7" d="M265.68,264.94v3.93C265,268.45,265,265.36,265.68,264.94Z"/><path class="cls-5" d="M262.94,146a72.59,72.59,0,0,1-7.07,7.07A67.42,67.42,0,0,1,262.94,146Z"/><path class="cls-7" d="M247.63,275.15v2.74c-.16,4.32-.61-1-.4-2.74Z"/><path class="cls-7" d="M247.63,255.91v3.14h-.4C247,257.35,247.43,251.47,247.63,255.91Z"/><path class="cls-3" d="M247.63,259.05c-.26,1.57.5,4.17-.4,5.1v-5.1Z"/><path class="cls-3" d="M247.63,275.15h-.4v-6.28C248.15,270.17,247.37,273.19,247.63,275.15Z"/><path class="cls-7" d="M247.23,268.87V274a51.15,51.15,0,0,1,0-14.09v9Z"/></svg>